<?xml version="1.0" encoding="iso-8859-1"?>
<!-- Generator: Adobe Illustrator 19.0.0, SVG Export Plug-In . SVG Version: 6.00 Build 0)  -->
<svg version="1.1" id="Layer_1" xmlns="http://www.w3.org/2000/svg" xmlns:xlink="http://www.w3.org/1999/xlink" x="0px" y="0px"
	 viewBox="0 0 512 512" style="enable-background:new 0 0 512 512;" xml:space="preserve">
<rect x="152.511" y="98.043" style="fill:#FFD311;" width="206.979" height="65.362"/>
<polygon style="fill:#595E62;" points="103.489,206.979 103.489,408.511 103.489,457.532 408.511,457.532 408.511,408.511 
	408.511,206.979 "/>
<polygon style="fill:#AFB6BB;" points="462.979,457.532 408.511,457.532 408.511,408.511 408.511,206.979 103.489,206.979 
	103.489,408.511 103.489,457.532 49.021,457.532 49.021,98.043 152.511,98.043 152.511,163.404 359.489,163.404 359.489,98.043 
	462.979,98.043 "/>
<polygon style="fill:#7E8488;" points="484.766,54.468 484.766,98.043 462.979,98.043 359.489,98.043 152.511,98.043 49.021,98.043 
	27.234,98.043 27.234,54.468 "/>
<path style="fill:#4B5054;" d="M205.689,206.979h-102.2v201.532v49.021h305.021v-37.613
	C314.06,381.278,239.819,303.664,205.689,206.979z"/>
<polygon style="fill:#989EA3;" points="152.511,163.404 152.511,98.043 49.021,98.043 49.021,457.532 103.489,457.532 
	103.489,408.511 103.489,206.979 256,206.979 256,163.404 "/>
<g>
	<rect x="130.723" y="324.085" style="fill:#FFFFFF;" width="250.553" height="16.34"/>
	<rect x="130.723" y="285.957" style="fill:#FFFFFF;" width="250.553" height="16.34"/>
	<rect x="130.723" y="247.83" style="fill:#FFFFFF;" width="250.553" height="16.34"/>
	<rect x="130.723" y="400.34" style="fill:#FFFFFF;" width="250.553" height="16.34"/>
	<rect x="130.723" y="362.213" style="fill:#FFFFFF;" width="250.553" height="16.34"/>
	<rect x="201.532" y="122.553" style="fill:#FFFFFF;" width="108.936" height="16.34"/>
</g>
<path d="M471.149,449.362V106.213h21.787V46.298H19.064v59.915h21.787v343.149H0v16.34h512v-16.34H471.149z M35.404,89.872V62.638
	h441.191v27.234H35.404z M351.319,106.213v49.021H160.681v-49.021H351.319z M57.191,155.234h57.191v-16.34H57.191v-32.681h87.149
	v65.362H367.66v-65.362h87.149v32.681h-57.191v16.34h57.191v294.128h-38.128V215.149h19.064v-16.34H76.255v16.34h19.064v234.213
	H57.191V155.234z M400.34,215.149v234.213H111.66V215.149H400.34z"/>
<g>
</g>
<g>
</g>
<g>
</g>
<g>
</g>
<g>
</g>
<g>
</g>
<g>
</g>
<g>
</g>
<g>
</g>
<g>
</g>
<g>
</g>
<g>
</g>
<g>
</g>
<g>
</g>
<g>
</g>
</svg>
